<svg width="32" height="34" viewBox="0 0 32 34" fill="none" xmlns="http://www.w3.org/2000/svg">
<path d="M27.2712 17.1439C27.2656 15.3511 27.0735 13.5637 26.6979 11.8106H31.4979C31.2507 11.0793 30.9521 10.3665 30.6045 9.67726H26.1379C25.2982 6.87201 23.9958 4.22672 22.2845 1.8506C21.1912 1.39087 20.0512 1.0511 18.8845 0.837262C21.229 3.35625 22.9986 6.35418 24.0712 9.62393H16.8845V0.610596H14.8845V9.63726H7.69787C8.77263 6.36159 10.547 3.35886 12.8979 0.837262C11.7362 1.04753 10.6007 1.38281 9.5112 1.83726C7.79314 4.20342 6.48181 6.8396 5.6312 9.63726H1.13787C0.783957 10.339 0.480954 11.0654 0.231201 11.8106H5.0712C4.69559 13.5637 4.50344 15.3511 4.49787 17.1439C4.50155 19.105 4.72517 21.0594 5.16453 22.9706H0.444534C0.720374 23.718 1.05013 24.4443 1.4312 25.1439H5.73787C6.55415 27.6983 7.76428 30.1096 9.32453 32.2906C10.4418 32.7698 11.609 33.1231 12.8045 33.3439C10.6284 30.9703 8.95488 28.181 7.88453 25.1439H14.8979V33.5973H16.8979V25.1439H23.8845C22.8106 28.1823 21.1324 30.9717 18.9512 33.3439C20.1523 33.1155 21.3241 32.7532 22.4445 32.2639C24.0023 30.0911 25.2124 27.689 26.0312 25.1439H30.2979C30.6772 24.4572 31.0069 23.7443 31.2845 23.0106H26.5512C27.0115 21.0884 27.253 19.1204 27.2712 17.1439ZM14.8845 22.9706H7.2312C6.2925 19.3011 6.25133 15.4594 7.1112 11.7706H14.8845V22.9706ZM24.5379 22.9706H16.8845V11.8106H24.6579C25.0409 13.5622 25.2287 15.3509 25.2179 17.1439C25.2287 19.1066 25.0004 21.0632 24.5379 22.9706Z" fill="#E79146"/>
</svg>
